<svg id="visual" viewBox="0 0 400 320" width="400" height="320" xmlns="http://www.w3.org/2000/svg" xmlns:xlink="http://www.w3.org/1999/xlink" version="1.1"><rect x="0" y="0" width="400" height="320" fill="#FCAF3C"></rect><path d="M0 191L9.5 196.5C19 202 38 213 57 212.5C76 212 95 200 114 197.3C133 194.7 152 201.3 171.2 202.7C190.3 204 209.7 200 228.8 198.5C248 197 267 198 286 204C305 210 324 221 343 226C362 231 381 230 390.5 229.5L400 229L400 321L390.5 321C381 321 362 321 343 321C324 321 305 321 286 321C267 321 248 321 228.8 321C209.7 321 190.3 321 171.2 321C152 321 133 321 114 321C95 321 76 321 57 321C38 321 19 321 9.5 321L0 321Z" fill="#fa7268"></path><path d="M0 218L9.5 219.8C19 221.7 38 225.3 57 230.7C76 236 95 243 114 241.5C133 240 152 230 171.2 223.7C190.3 217.3 209.7 214.7 228.8 213.8C248 213 267 214 286 218C305 222 324 229 343 233C362 237 381 238 390.5 238.5L400 239L400 321L390.5 321C381 321 362 321 343 321C324 321 305 321 286 321C267 321 248 321 228.8 321C209.7 321 190.3 321 171.2 321C152 321 133 321 114 321C95 321 76 321 57 321C38 321 19 321 9.5 321L0 321Z" fill="#ef5f67"></path><path d="M0 234L9.5 235.7C19 237.3 38 240.7 57 241.7C76 242.7 95 241.3 114 240.7C133 240 152 240 171.2 244.8C190.3 249.7 209.7 259.3 228.8 259.7C248 260 267 251 286 250C305 249 324 256 343 260.3C362 264.7 381 266.3 390.5 267.2L400 268L400 321L390.5 321C381 321 362 321 343 321C324 321 305 321 286 321C267 321 248 321 228.8 321C209.7 321 190.3 321 171.2 321C152 321 133 321 114 321C95 321 76 321 57 321C38 321 19 321 9.5 321L0 321Z" fill="#e34c67"></path><path d="M0 264L9.5 267C19 270 38 276 57 275C76 274 95 266 114 262.8C133 259.7 152 261.3 171.2 263.2C190.3 265 209.7 267 228.8 269.2C248 271.3 267 273.7 286 276.8C305 280 324 284 343 284.8C362 285.7 381 283.3 390.5 282.2L400 281L400 321L390.5 321C381 321 362 321 343 321C324 321 305 321 286 321C267 321 248 321 228.8 321C209.7 321 190.3 321 171.2 321C152 321 133 321 114 321C95 321 76 321 57 321C38 321 19 321 9.5 321L0 321Z" fill="#d53867"></path><path d="M0 296L9.5 297.5C19 299 38 302 57 303.7C76 305.3 95 305.7 114 304.8C133 304 152 302 171.2 297.5C190.3 293 209.7 286 228.8 285.8C248 285.7 267 292.3 286 293.5C305 294.7 324 290.3 343 287.7C362 285 381 284 390.5 283.5L400 283L400 321L390.5 321C381 321 362 321 343 321C324 321 305 321 286 321C267 321 248 321 228.8 321C209.7 321 190.3 321 171.2 321C152 321 133 321 114 321C95 321 76 321 57 321C38 321 19 321 9.5 321L0 321Z" fill="#c62368"></path></svg>