<svg id="visual" viewBox="0 0 960 540" width="960" height="540" xmlns="http://www.w3.org/2000/svg" xmlns:xlink="http://www.w3.org/1999/xlink" version="1.1"><path d="M0 174L96 174L96 141L192 141L192 163L288 163L288 136L384 136L384 131L480 131L480 131L576 131L576 163L672 163L672 152L768 152L768 158L864 158L864 131L960 131L960 168L960 0L960 0L864 0L864 0L768 0L768 0L672 0L672 0L576 0L576 0L480 0L480 0L384 0L384 0L288 0L288 0L192 0L192 0L96 0L96 0L0 0Z" fill="#faf169"></path><path d="M0 309L96 309L96 303L192 303L192 287L288 287L288 298L384 298L384 303L480 303L480 330L576 330L576 293L672 293L672 303L768 303L768 314L864 314L864 330L960 330L960 309L960 166L960 129L864 129L864 156L768 156L768 150L672 150L672 161L576 161L576 129L480 129L480 129L384 129L384 134L288 134L288 161L192 161L192 139L96 139L96 172L0 172Z" fill="#e5d86b"></path><path d="M0 368L96 368L96 379L192 379L192 363L288 363L288 368L384 368L384 374L480 374L480 395L576 395L576 357L672 357L672 374L768 374L768 384L864 384L864 390L960 390L960 368L960 307L960 328L864 328L864 312L768 312L768 301L672 301L672 291L576 291L576 328L480 328L480 301L384 301L384 296L288 296L288 285L192 285L192 301L96 301L96 307L0 307Z" fill="#cfc06d"></path><path d="M0 428L96 428L96 444L192 444L192 428L288 428L288 422L384 422L384 444L480 444L480 455L576 455L576 433L672 433L672 433L768 433L768 444L864 444L864 460L960 460L960 433L960 366L960 388L864 388L864 382L768 382L768 372L672 372L672 355L576 355L576 393L480 393L480 372L384 372L384 366L288 366L288 361L192 361L192 377L96 377L96 366L0 366Z" fill="#b8a96e"></path><path d="M0 541L96 541L96 541L192 541L192 541L288 541L288 541L384 541L384 541L480 541L480 541L576 541L576 541L672 541L672 541L768 541L768 541L864 541L864 541L960 541L960 541L960 431L960 458L864 458L864 442L768 442L768 431L672 431L672 431L576 431L576 453L480 453L480 442L384 442L384 420L288 420L288 426L192 426L192 442L96 442L96 426L0 426Z" fill="#9f936e"></path></svg>