<svg id="visual" viewBox="0 0 1920 1620" width="1920" height="1620" xmlns="http://www.w3.org/2000/svg" xmlns:xlink="http://www.w3.org/1999/xlink" version="1.1"><rect x="0" y="0" width="1920" height="1620" fill="#faf169"></rect><path d="M0 516L640 273L1280 560L1920 564L1920 1621L1280 1621L640 1621L0 1621Z" fill="#b48640"></path><path d="M0 399L640 635L1280 420L1920 447L1920 1621L1280 1621L640 1621L0 1621Z" fill="#a57e3d"></path><path d="M0 821L640 587L1280 897L1920 575L1920 1621L1280 1621L640 1621L0 1621Z" fill="#97763a"></path><path d="M0 672L640 963L1280 628L1920 851L1920 1621L1280 1621L640 1621L0 1621Z" fill="#896d38"></path><path d="M0 933L640 901L1280 941L1920 999L1920 1621L1280 1621L640 1621L0 1621Z" fill="#7b6535"></path><path d="M0 918L640 896L1280 910L1920 1055L1920 1621L1280 1621L640 1621L0 1621Z" fill="#6f5d33"></path><path d="M0 1113L640 1214L1280 1228L1920 1193L1920 1621L1280 1621L640 1621L0 1621Z" fill="#625431"></path><path d="M0 1240L640 1346L1280 1284L1920 1157L1920 1621L1280 1621L640 1621L0 1621Z" fill="#564c2f"></path><path d="M0 1372L640 1428L1280 1427L1920 1409L1920 1621L1280 1621L640 1621L0 1621Z" fill="#4b432c"></path><path d="M0 1478L640 1422L1280 1421L1920 1541L1920 1621L1280 1621L640 1621L0 1621Z" fill="#403b2a"></path></svg>