<svg id="visual" viewBox="0 0 960 540" width="960" height="540" xmlns="http://www.w3.org/2000/svg" xmlns:xlink="http://www.w3.org/1999/xlink" version="1.1"><g stroke-width="1" stroke-linejoin="bevel"><path d="M465 219L486 123L360 196Z" fill="#9d984c" stroke="#9d984c"></path><path d="M486 123L356 88L360 196Z" fill="#545a33" stroke="#545a33"></path><path d="M486 123L470 0L356 88Z" fill="#838344" stroke="#838344"></path><path d="M470 0L359 0L356 88Z" fill="#908d48" stroke="#908d48"></path><path d="M365 339L489 330L465 219Z" fill="#838344" stroke="#838344"></path><path d="M465 219L601 227L486 123Z" fill="#838344" stroke="#838344"></path><path d="M359 0L249 94L356 88Z" fill="#908d48" stroke="#908d48"></path><path d="M356 88L249 94L360 196Z" fill="#908d48" stroke="#908d48"></path><path d="M360 196L365 339L465 219Z" fill="#5f6437" stroke="#5f6437"></path><path d="M233 318L365 339L360 196Z" fill="#908d48" stroke="#908d48"></path><path d="M489 330L601 227L465 219Z" fill="#3f462a" stroke="#3f462a"></path><path d="M486 123L586 0L470 0Z" fill="#76793f" stroke="#76793f"></path><path d="M601 227L617 119L486 123Z" fill="#9d984c" stroke="#9d984c"></path><path d="M249 94L228 220L360 196Z" fill="#5f6437" stroke="#5f6437"></path><path d="M617 119L586 0L486 123Z" fill="#5f6437" stroke="#5f6437"></path><path d="M228 220L233 318L360 196Z" fill="#6a6e3b" stroke="#6a6e3b"></path><path d="M359 0L222 0L249 94Z" fill="#2d3321" stroke="#2d3321"></path><path d="M249 94L131 222L228 220Z" fill="#3f462a" stroke="#3f462a"></path><path d="M492 433L603 343L489 330Z" fill="#49502e" stroke="#49502e"></path><path d="M489 330L603 343L601 227Z" fill="#9d984c" stroke="#9d984c"></path><path d="M601 227L733 219L617 119Z" fill="#5f6437" stroke="#5f6437"></path><path d="M246 436L354 429L365 339Z" fill="#9d984c" stroke="#9d984c"></path><path d="M365 339L492 433L489 330Z" fill="#6a6e3b" stroke="#6a6e3b"></path><path d="M354 429L492 433L365 339Z" fill="#838344" stroke="#838344"></path><path d="M228 220L129 317L233 318Z" fill="#49502e" stroke="#49502e"></path><path d="M105 91L131 222L249 94Z" fill="#838344" stroke="#838344"></path><path d="M702 342L733 219L601 227Z" fill="#2d3321" stroke="#2d3321"></path><path d="M617 119L702 0L586 0Z" fill="#76793f" stroke="#76793f"></path><path d="M733 219L738 102L617 119Z" fill="#2d3321" stroke="#2d3321"></path><path d="M738 102L702 0L617 119Z" fill="#6a6e3b" stroke="#6a6e3b"></path><path d="M134 0L105 91L249 94Z" fill="#545a33" stroke="#545a33"></path><path d="M492 433L603 433L603 343Z" fill="#76793f" stroke="#76793f"></path><path d="M603 343L702 342L601 227Z" fill="#6a6e3b" stroke="#6a6e3b"></path><path d="M233 318L246 436L365 339Z" fill="#76793f" stroke="#76793f"></path><path d="M354 429L475 540L492 433Z" fill="#363d26" stroke="#363d26"></path><path d="M492 433L594 540L603 433Z" fill="#363d26" stroke="#363d26"></path><path d="M119 439L246 436L233 318Z" fill="#6a6e3b" stroke="#6a6e3b"></path><path d="M222 0L134 0L249 94Z" fill="#908d48" stroke="#908d48"></path><path d="M603 433L702 342L603 343Z" fill="#76793f" stroke="#76793f"></path><path d="M0 224L129 317L131 222Z" fill="#363d26" stroke="#363d26"></path><path d="M131 222L129 317L228 220Z" fill="#49502e" stroke="#49502e"></path><path d="M361 540L475 540L354 429Z" fill="#3f462a" stroke="#3f462a"></path><path d="M246 436L361 540L354 429Z" fill="#9d984c" stroke="#9d984c"></path><path d="M603 433L723 430L702 342Z" fill="#838344" stroke="#838344"></path><path d="M840 328L846 218L733 219Z" fill="#9d984c" stroke="#9d984c"></path><path d="M594 540L723 430L603 433Z" fill="#5f6437" stroke="#5f6437"></path><path d="M0 337L119 439L129 317Z" fill="#49502e" stroke="#49502e"></path><path d="M129 317L119 439L233 318Z" fill="#908d48" stroke="#908d48"></path><path d="M246 436L239 540L361 540Z" fill="#49502e" stroke="#49502e"></path><path d="M475 540L594 540L492 433Z" fill="#5f6437" stroke="#5f6437"></path><path d="M119 439L239 540L246 436Z" fill="#363d26" stroke="#363d26"></path><path d="M846 218L844 103L738 102Z" fill="#363d26" stroke="#363d26"></path><path d="M738 102L839 0L702 0Z" fill="#9d984c" stroke="#9d984c"></path><path d="M846 218L738 102L733 219Z" fill="#363d26" stroke="#363d26"></path><path d="M0 0L0 112L105 91Z" fill="#3f462a" stroke="#3f462a"></path><path d="M105 91L0 112L131 222Z" fill="#363d26" stroke="#363d26"></path><path d="M840 328L733 219L702 342Z" fill="#2d3321" stroke="#2d3321"></path><path d="M0 112L0 224L131 222Z" fill="#76793f" stroke="#76793f"></path><path d="M844 103L839 0L738 102Z" fill="#363d26" stroke="#363d26"></path><path d="M723 430L840 328L702 342Z" fill="#9d984c" stroke="#9d984c"></path><path d="M134 0L0 0L105 91Z" fill="#3f462a" stroke="#3f462a"></path><path d="M0 224L0 337L129 317Z" fill="#5f6437" stroke="#5f6437"></path><path d="M119 439L120 540L239 540Z" fill="#838344" stroke="#838344"></path><path d="M0 540L120 540L119 439Z" fill="#76793f" stroke="#76793f"></path><path d="M737 540L826 441L723 430Z" fill="#838344" stroke="#838344"></path><path d="M723 430L826 441L840 328Z" fill="#363d26" stroke="#363d26"></path><path d="M594 540L737 540L723 430Z" fill="#908d48" stroke="#908d48"></path><path d="M0 337L0 435L119 439Z" fill="#545a33" stroke="#545a33"></path><path d="M960 305L846 218L840 328Z" fill="#838344" stroke="#838344"></path><path d="M960 305L960 198L846 218Z" fill="#908d48" stroke="#908d48"></path><path d="M846 218L960 198L844 103Z" fill="#838344" stroke="#838344"></path><path d="M844 103L960 0L839 0Z" fill="#3f462a" stroke="#3f462a"></path><path d="M960 198L960 112L844 103Z" fill="#76793f" stroke="#76793f"></path><path d="M960 443L960 305L840 328Z" fill="#49502e" stroke="#49502e"></path><path d="M960 443L840 328L826 441Z" fill="#2d3321" stroke="#2d3321"></path><path d="M960 112L960 0L844 103Z" fill="#2d3321" stroke="#2d3321"></path><path d="M0 435L0 540L119 439Z" fill="#545a33" stroke="#545a33"></path><path d="M737 540L848 540L826 441Z" fill="#6a6e3b" stroke="#6a6e3b"></path><path d="M848 540L960 443L826 441Z" fill="#5f6437" stroke="#5f6437"></path><path d="M848 540L960 540L960 443Z" fill="#838344" stroke="#838344"></path></g></svg>