<svg id="visual" viewBox="0 0 960 540" width="960" height="540" xmlns="http://www.w3.org/2000/svg" xmlns:xlink="http://www.w3.org/1999/xlink" version="1.1"><path d="M0 158L14.5 157C29 156 58 154 87.2 145.8C116.3 137.7 145.7 123.3 174.8 125.2C204 127 233 145 262 141.3C291 137.7 320 112.3 349 104.2C378 96 407 105 436.2 119.5C465.3 134 494.7 154 523.8 157.7C553 161.3 582 148.7 611 150.5C640 152.3 669 168.7 698 163.3C727 158 756 131 785.2 114.7C814.3 98.3 843.7 92.7 872.8 91.7C902 90.7 931 94.3 945.5 96.2L960 98L960 0L945.5 0C931 0 902 0 872.8 0C843.7 0 814.3 0 785.2 0C756 0 727 0 698 0C669 0 640 0 611 0C582 0 553 0 523.8 0C494.7 0 465.3 0 436.2 0C407 0 378 0 349 0C320 0 291 0 262 0C233 0 204 0 174.8 0C145.7 0 116.3 0 87.2 0C58 0 29 0 14.5 0L0 0Z" fill="#9f936e"></path><path d="M0 212L14.5 216.5C29 221 58 230 87.2 228.2C116.3 226.3 145.7 213.7 174.8 206.3C204 199 233 197 262 183.5C291 170 320 145 349 140.5C378 136 407 152 436.2 171.8C465.3 191.7 494.7 215.3 523.8 224.3C553 233.3 582 227.7 611 228.5C640 229.3 669 236.7 698 222.3C727 208 756 172 785.2 155.8C814.3 139.7 843.7 143.3 872.8 142.5C902 141.7 931 136.3 945.5 133.7L960 131L960 96L945.5 94.2C931 92.3 902 88.7 872.8 89.7C843.7 90.7 814.3 96.3 785.2 112.7C756 129 727 156 698 161.3C669 166.7 640 150.3 611 148.5C582 146.7 553 159.3 523.8 155.7C494.7 152 465.3 132 436.2 117.5C407 103 378 94 349 102.2C320 110.3 291 135.7 262 139.3C233 143 204 125 174.8 123.2C145.7 121.3 116.3 135.7 87.2 143.8C58 152 29 154 14.5 155L0 156Z" fill="#7b7f5d"></path><path d="M0 260L14.5 264.5C29 269 58 278 87.2 274.5C116.3 271 145.7 255 174.8 249.7C204 244.3 233 249.7 262 243.3C291 237 320 219 349 219C378 219 407 237 436.2 260.3C465.3 283.7 494.7 312.3 523.8 321.3C553 330.3 582 319.7 611 317.8C640 316 669 323 698 307.7C727 292.3 756 254.7 785.2 234C814.3 213.3 843.7 209.7 872.8 215C902 220.3 931 234.7 945.5 241.8L960 249L960 129L945.5 131.7C931 134.3 902 139.7 872.8 140.5C843.7 141.3 814.3 137.7 785.2 153.8C756 170 727 206 698 220.3C669 234.7 640 227.3 611 226.5C582 225.7 553 231.3 523.8 222.3C494.7 213.3 465.3 189.7 436.2 169.8C407 150 378 134 349 138.5C320 143 291 168 262 181.5C233 195 204 197 174.8 204.3C145.7 211.7 116.3 224.3 87.2 226.2C58 228 29 219 14.5 214.5L0 210Z" fill="#5a6b4f"></path><path d="M0 417L14.5 416C29 415 58 413 87.2 403C116.3 393 145.7 375 174.8 375C204 375 233 393 262 389.5C291 386 320 361 349 345.8C378 330.7 407 325.3 436.2 333.3C465.3 341.3 494.7 362.7 523.8 378.8C553 395 582 406 611 407C640 408 669 399 698 390.8C727 382.7 756 375.3 785.2 369C814.3 362.7 843.7 357.3 872.8 357.3C902 357.3 931 362.7 945.5 365.3L960 368L960 247L945.5 239.8C931 232.7 902 218.3 872.8 213C843.7 207.7 814.3 211.3 785.2 232C756 252.7 727 290.3 698 305.7C669 321 640 314 611 315.8C582 317.7 553 328.3 523.8 319.3C494.7 310.3 465.3 281.7 436.2 258.3C407 235 378 217 349 217C320 217 291 235 262 241.3C233 247.7 204 242.3 174.8 247.7C145.7 253 116.3 269 87.2 272.5C58 276 29 267 14.5 262.5L0 258Z" fill="#3c5643"></path><path d="M0 541L14.5 541C29 541 58 541 87.2 541C116.3 541 145.7 541 174.8 541C204 541 233 541 262 541C291 541 320 541 349 541C378 541 407 541 436.2 541C465.3 541 494.7 541 523.8 541C553 541 582 541 611 541C640 541 669 541 698 541C727 541 756 541 785.2 541C814.3 541 843.7 541 872.8 541C902 541 931 541 945.5 541L960 541L960 366L945.5 363.3C931 360.7 902 355.3 872.8 355.3C843.7 355.3 814.3 360.7 785.2 367C756 373.3 727 380.7 698 388.8C669 397 640 406 611 405C582 404 553 393 523.8 376.8C494.7 360.7 465.3 339.3 436.2 331.3C407 323.3 378 328.7 349 343.8C320 359 291 384 262 387.5C233 391 204 373 174.8 373C145.7 373 116.3 391 87.2 401C58 411 29 413 14.5 414L0 415Z" fill="#234137"></path></svg>